# xmcd
#
# Track frame offsets:
#	150
#	19670
#	44420
#	60660
#	80605
#	101767
#	122522
#	143602
#	167392
#	189030
#
# Disc length: 2796 seconds
#
# Revision: 3
# Processed by: cddbd v1.5PL3 Copyright (c) Steve Scherf et al.
# Submitted via: EasyCDDAExtractor 6.5.0.1
#
DISCID=740aea0a
DTITLE=Various Artist - Bad Of The Heart
DYEAR=1990
DGENRE=Pop
TTITLE0=George LaMond - Bad Of The Heart(Bad Of The Heart US CD Version)
TTITLE1=George LaMond - Love's Contagious(Bad Of The Heart US CD Version)
TTITLE2=George LaMond - Serenade You(Bad Of The Heart US CD Version)
TTITLE3=George LaMond - Passing Time(Bad Of The Heart US CD Version)
TTITLE4=George LaMond - Without You(Bad Of The Heart US CD Version)
TTITLE5=George LaMond - Stop That Girl(Bad Of The Heart US CD Version)
TTITLE6=George LaMond - Who Needs Love(Bad Of The Heart US CD Version)
TTITLE7=George LaMond - Look Into My Eyes(Bad Of The Heart US CD Version)
TTITLE8=George LaMond - What Could've Been(Bad Of The Heart US CD Version)
TTITLE9=George LaMond And Brenda K. Starr - No Matter What(Bad Of The Heart US
TTITLE9=CD Version)
EXTD=
EXTT0=
EXTT1=
EXTT2=
EXTT3=
EXTT4=
EXTT5=
EXTT6=
EXTT7=
EXTT8=
EXTT9=
PLAYORDER=
